<svg width="166" height="166" viewBox="0 0 166 166" fill="none" xmlns="http://www.w3.org/2000/svg">
<path d="M150.525 164.47C117.62 161.256 87.8749 149.135 62.1338 128.46C27.6217 100.731 5.53067 59.5448 1.55374 15.4172C1.22687 11.9578 0.954467 8.41671 0.899989 7.38162C0.84551 6.34653 0.818274 4.93009 0.818274 3.29573C0.818274 2.28788 0.818276 1.1983 0.845515 0.0542526L0.0283371 0.0542526C-0.0261413 3.07781 0.00109313 5.74725 0.082811 7.43608C0.13729 8.49842 0.409689 12.0395 0.73656 15.5262C4.76797 59.8444 26.9407 101.248 61.6435 129.114C87.5208 149.897 117.402 162.073 150.471 165.288C154.257 165.669 160.222 165.887 165.888 165.914L165.888 165.097C160.25 165.07 154.284 164.852 150.525 164.47Z" fill="black" fill-opacity="0.2"/>
<path d="M136.034 157.198C126.882 155.482 113.78 151.614 104.927 147.964C100.323 146.057 90.4355 141.209 86.4041 138.866C61.807 124.675 41.3231 104.163 27.1314 79.5935C24.7888 75.5076 19.913 65.6198 18.1697 61.3432C11.4144 44.9997 7.05609 25.796 6.18443 8.63526C6.10271 6.81023 6.04823 4.46766 6.04823 1.90717C6.04823 1.30791 6.04823 0.708625 6.04823 0.0821218L5.23106 0.0821218C5.20382 3.35083 5.2583 6.42886 5.36725 8.68972C6.23891 25.9322 10.6244 45.2448 17.407 61.6701C19.1776 65.9739 24.0534 75.9162 26.4232 80.0293C33.5599 92.4232 42.2765 103.755 52.2733 113.752C62.2701 123.748 73.6288 132.465 85.9955 139.602C90.0541 141.971 99.9964 146.847 104.627 148.754C113.534 152.431 126.691 156.327 135.898 158.043C146.957 160.113 153.957 160.739 165.861 160.739L165.861 159.922C154.012 159.895 147.039 159.268 136.034 157.198Z" fill="black" fill-opacity="0.2"/>
<path d="M141.618 147.664C86.1856 138.539 40.9412 99.6143 23.5898 46.0619C19.4767 33.3684 17.2158 20.7839 16.4259 6.42876C16.3986 5.66606 16.3714 4.57647 16.3714 3.24175C16.3714 2.26113 16.3714 1.19882 16.3986 0.054768L15.5814 0.054768C15.527 2.77869 15.5542 5.17574 15.6087 6.48323C16.3986 20.92 18.6867 33.5591 22.8271 46.3343C31.353 72.6474 46.9338 96.0731 67.8536 114.106C88.7733 132.111 114.242 144.014 141.509 148.509C149.626 149.843 157.798 150.497 165.888 150.524L165.888 149.707C157.798 149.653 149.708 148.999 141.618 147.664Z" fill="black" fill-opacity="0.2"/>
<path d="M153.849 154.419C143.743 153.439 137.179 152.349 128.762 150.252C105.826 144.613 84.743 133.854 66.0841 118.327C61.5624 114.568 51.4021 104.408 47.6431 99.8863C32.1167 81.2274 21.3572 60.1442 15.7187 37.2088C13.2672 27.2392 12.0959 19.3671 11.2242 7.1094C11.1697 6.51013 11.1697 5.31159 11.1697 3.78619C11.1697 2.69662 11.1697 1.41639 11.197 0.054423L10.3798 0.054423C10.3253 3.29589 10.3525 6.12877 10.407 7.16386C11.2514 19.476 12.45 27.4026 14.9015 37.3994C20.5673 60.4439 31.3813 81.6632 46.9894 100.404C50.7756 104.953 60.9903 115.168 65.5393 118.954C84.2799 134.562 105.499 145.376 128.544 151.042C137.015 153.139 143.607 154.229 153.74 155.209C156.028 155.427 160.904 155.536 165.834 155.536L165.834 154.719C160.986 154.746 156.137 154.637 153.849 154.419Z" fill="black" fill-opacity="0.2"/>
<path d="M122.142 132.247C93.949 122.904 69.8695 105.117 52.4909 80.8466C37.9451 60.5261 29.174 36.5283 27.1311 11.4954C26.777 7.32784 26.6136 3.73226 26.6136 0.16392C26.6136 0.136681 26.6136 0.109428 26.6136 0.0821891L25.7964 0.0821891C25.7964 3.70501 25.9598 7.32783 26.3139 11.5499C28.3569 36.7462 37.1824 60.8802 51.8371 81.3369C69.2975 105.771 93.5404 123.639 121.869 133.064C136.088 137.777 150.961 140.146 165.833 140.146L165.833 139.248C151.179 139.248 136.415 136.959 122.142 132.247Z" fill="black" fill-opacity="0.2"/>
<path d="M102.23 129.605C73.356 115.414 50.584 92.6415 36.3651 63.7406C27.703 46.0624 22.8544 27.6758 21.6014 7.5188C21.5197 6.15683 21.5197 3.26947 21.5469 0.0552407L20.7298 0.0552407C20.6753 3.29671 20.7025 6.18406 20.7842 7.57326C22.0645 27.8393 26.9131 46.3347 35.6569 64.122C49.9575 93.1862 72.8657 116.094 101.903 130.368C115.686 137.123 130.15 141.645 144.968 143.824C151.887 144.832 158.887 145.349 165.915 145.322L165.915 144.478C143.933 144.478 122.305 139.466 102.23 129.605Z" fill="black" fill-opacity="0.2"/>
<path d="M153.44 128.405C135.162 126.363 120.153 121.759 104.79 113.533C93.8128 107.649 84.0339 100.349 74.936 91.3056C52.3547 68.7787 39.2798 39.6327 37.0734 7.0001C37.0189 6.2374 36.9917 5.06611 36.9917 3.59519C36.9917 2.53286 36.9917 1.33434 37.019 0.0540905L36.2018 0.0540905C36.1473 3.05041 36.1473 5.71985 36.229 7.02733C37.3186 23.4254 41.1321 38.979 47.5605 53.2796C53.9618 67.5802 62.978 80.5461 74.3367 91.8776C83.4891 101.003 93.3225 108.33 104.354 114.268C119.799 122.576 134.89 127.18 153.276 129.25C156.191 129.577 160.985 129.74 165.779 129.74L165.779 128.923C161.121 128.896 156.354 128.732 153.44 128.405Z" fill="black" fill-opacity="0.2"/>
<path d="M107.896 120.888C77.2515 106.124 53.5806 80.6556 41.1868 49.1943C35.6572 35.1116 32.8243 21.7099 31.9526 5.74767C31.8709 4.24952 31.8164 2.5062 31.8164 0.572215C31.8164 0.40878 31.8164 0.218098 31.8164 0.0546626L30.9993 0.0546627C30.9993 2.17933 31.0265 4.16778 31.1355 5.80214C32.0071 21.8733 34.8672 35.3295 40.4241 49.5212C46.6074 65.211 55.5691 79.4571 67.1185 91.851C78.668 104.245 92.2604 114.269 107.542 121.651C125.656 130.394 146.14 135.025 165.861 134.998L165.861 134.181C146.249 134.208 125.928 129.577 107.896 120.888Z" fill="black" fill-opacity="0.2"/>
<path d="M68.6444 67.7714C56.305 50.0659 48.8415 28.6559 47.5885 7.54544C47.5068 5.96557 47.4523 3.8409 47.4523 1.5528C47.4523 1.0625 47.4523 0.544952 47.4523 0.0546457L46.6351 0.0546457C46.6079 2.94201 46.6623 5.66592 46.7713 7.59991C48.0243 28.8738 55.5696 50.42 67.9907 68.2618C75.4542 78.9668 84.5249 88.2826 94.9576 96.0186C105.145 103.564 116.422 109.393 128.462 113.397C140.502 117.374 153.059 119.417 165.725 119.444C165.78 119.444 165.834 119.444 165.889 119.444L165.889 118.736C127.808 118.791 91.4709 100.513 68.6444 67.7714Z" fill="black" fill-opacity="0.2"/>
<path d="M147.747 122.468C142.272 121.678 133.828 119.69 128.053 117.892C120.998 115.631 110.838 111.137 104.437 107.432C80.085 93.4585 61.0719 71.4492 50.8572 45.4902C48.5419 39.6338 47.6157 36.7191 46.0631 30.6175C44.1019 22.9361 42.9851 15.8811 42.4131 7.73657C42.2496 5.17608 42.1407 2.64283 42.1407 0.0823445L41.3235 0.0823446C41.3235 2.67007 41.4052 5.23058 41.5959 7.79107C42.1407 15.9901 43.2847 23.0995 45.2459 30.8355C46.7986 36.9915 47.752 39.9334 50.0945 45.8171C60.3637 71.9668 79.5129 94.1123 104.001 108.195C110.566 111.981 120.562 116.394 127.781 118.709C133.583 120.534 142.082 122.523 147.584 123.34C153.495 124.212 159.651 124.647 165.834 124.647L165.834 123.83C159.733 123.776 153.631 123.34 147.747 122.468Z" fill="black" fill-opacity="0.2"/>
<path d="M148.346 106.806C109.013 100.404 76.5435 72.9744 63.6593 35.2208C60.7992 26.8856 58.8925 17.9511 58.2387 10.079C58.0753 8.44461 57.9391 6.64679 57.8846 5.69341L57.8574 5.17589C57.8029 4.63111 57.8029 3.73221 57.8029 2.58817C57.8029 1.82547 57.8029 0.953796 57.8301 0.0549007L57.013 0.0549007C56.9585 2.37024 56.9857 4.33146 57.0674 5.25759L57.0947 5.77515C57.1764 6.72852 57.3126 8.5263 57.476 10.1607C58.1298 18.0873 60.0638 27.0762 62.9511 35.4932C69.2979 54.0703 80.6022 70.6046 95.6655 83.3253C110.729 96.046 128.925 104.463 148.292 107.596C154.366 108.576 160.086 109.066 165.943 109.066L165.943 108.249C160.059 108.276 154.366 107.786 148.346 106.806Z" fill="black" fill-opacity="0.2"/>
<path d="M148.946 112.143C132.82 109.774 117.539 103.89 103.511 94.6286C79.7583 78.9933 62.8972 55.2679 56.0329 27.8652C54.1534 20.2382 53.2817 14.7632 52.628 6.12831C52.5735 5.50181 52.5735 4.46671 52.5735 3.15923C52.5735 2.23309 52.5735 1.17076 52.6007 0.0539458L51.7836 0.0539458C51.7291 2.77787 51.7291 5.14768 51.8108 6.21001C52.4646 14.8721 53.3362 20.4017 55.2157 28.0832C58.6206 41.73 64.5316 54.5325 72.785 66.1092C81.0385 77.7131 91.1988 87.5192 103.048 95.3369C117.185 104.653 132.575 110.591 148.81 112.961C155.674 113.969 158.235 114.159 165.862 114.159L165.862 113.342C158.316 113.342 155.756 113.151 148.946 112.143Z" fill="black" fill-opacity="0.2"/>
<path d="M125.492 89.1267C101.712 78.3944 82.9991 58.2374 74.1191 33.8582C70.9321 25.0327 69.0799 16.5886 68.2899 7.24551C68.181 5.93802 68.1265 4.03128 68.1265 1.90662C68.1265 1.30735 68.1265 0.680838 68.1265 0.0543349L67.3093 0.0543349C67.2821 2.9417 67.3093 5.61114 67.4455 7.29997C68.2354 16.6975 70.1149 25.2234 73.3292 34.1306C77.6875 46.1432 84.7152 57.5564 93.6224 67.1446C102.53 76.7329 113.425 84.605 125.138 89.8894C138.159 95.7731 151.969 98.7422 165.861 98.7422L165.861 97.925C152.105 97.8978 138.404 94.9832 125.492 89.1267Z" fill="black" fill-opacity="0.2"/>
<path d="M137.559 99.0694C102.748 89.0726 75.3994 61.0979 66.2197 26.0137C64.7216 20.239 63.3324 11.7403 63.0055 6.29245C62.8965 4.19503 62.8148 2.12484 62.8421 0.0546567L62.0249 0.0546568C62.0249 2.15208 62.0794 4.2495 62.2156 6.34692C62.5424 11.8492 63.9316 20.4024 65.4298 26.2316C69.9788 43.6647 79.0494 59.7086 91.634 72.5928C104.219 85.477 120.017 94.9018 137.314 99.8865C146.712 102.583 156.3 103.918 165.861 103.918L165.861 103.101C156.382 103.074 146.875 101.766 137.559 99.0694Z" fill="black" fill-opacity="0.2"/>
<path d="M135.298 82.0174C116.067 74.8535 99.8051 60.907 89.5087 42.7111C82.3992 30.1266 78.3951 14.6275 78.3951 0.0544691L77.5779 0.0544691C77.6051 14.7637 81.6093 30.4262 88.8005 43.0925C99.2059 61.4518 115.604 75.5345 135.025 82.7801C145.022 86.5119 155.482 88.3369 165.888 88.3369L165.888 87.5197C155.564 87.5197 145.213 85.6947 135.298 82.0174Z" fill="black" fill-opacity="0.2"/>
<path d="M135.708 87.6557C108.278 78.1764 86.5953 56.0309 77.7153 28.4103C75.2638 20.7561 73.9835 13.8918 73.3843 4.68491C73.2753 3.29571 73.2481 1.8248 73.2481 0.272163C73.2481 0.217684 73.2481 0.163186 73.2481 0.081468L72.4309 0.081468C72.4309 1.71582 72.4854 3.29569 72.5671 4.73937C73.1936 14.028 74.4738 20.9467 76.9526 28.6827C81.3654 42.4113 89.0196 55.132 99.1526 65.4557C109.258 75.8066 121.816 83.7605 135.463 88.4729C145.378 91.8778 155.62 93.5939 165.916 93.6211L165.916 92.8039C155.674 92.7222 145.514 91.0334 135.708 87.6557Z" fill="black" fill-opacity="0.2"/>
<path d="M114.434 64.2842C110.784 61.3696 104.601 55.1863 101.686 51.5362C91.4985 38.7883 85.3152 23.1802 83.7898 6.45527C83.6536 4.90263 83.5991 2.56006 83.6536 0.0268132L82.8364 0.0268132C82.8092 2.5873 82.8364 4.92986 82.9726 6.50974C84.498 23.3981 90.7358 39.1424 101.032 52.0266C103.974 55.7039 110.212 61.9416 113.889 64.8835C122.606 71.8567 132.466 76.9232 143.199 79.974C150.608 82.0715 158.18 83.1338 165.834 83.1338L165.834 82.3166C147.176 82.3438 129.198 76.1061 114.434 64.2842Z" fill="black" fill-opacity="0.2"/>
<path d="M147.584 74.9627C119.092 67.9622 97.3277 45.8984 90.7902 17.3789C89.401 11.2773 88.7745 6.29248 88.7745 0.626718C88.7745 0.436044 88.7745 0.218143 88.7745 0.0274679L87.9574 0.0274679C87.9029 5.99287 88.5294 11.1683 90.0003 17.5423C93.2145 31.5977 100.297 44.4819 110.43 54.7511C120.563 65.0203 133.338 72.2932 147.393 75.7254C153.468 77.2235 159.678 77.959 165.862 77.959L165.862 77.1963C159.842 77.2235 153.713 76.4608 147.584 74.9627Z" fill="black" fill-opacity="0.2"/>
<path d="M158.098 66.4096C146.249 64.9115 135.408 60.5804 125.874 53.4982C122.224 50.7743 115.224 43.8011 112.5 40.1238C105.363 30.5083 100.814 19.0678 99.6427 7.89972C99.5337 6.81015 99.3975 5.66608 99.3158 4.87614C99.2886 4.52203 99.2341 4.24964 99.2341 4.05896C99.1796 3.65037 99.1796 2.9694 99.1796 2.09775C99.1796 1.47125 99.1796 0.79027 99.2068 0.0275711L98.3897 0.0275712C98.3352 1.87984 98.3624 3.43247 98.4441 4.16793C98.4714 4.33136 98.4986 4.60375 98.5259 4.9851C98.6076 5.77504 98.7438 6.91909 98.8527 7.98142C100.024 19.2857 104.655 30.8624 111.873 40.5868C114.624 44.2914 121.706 51.3736 125.411 54.1247C135.054 61.2887 146.031 65.6742 158.016 67.1996C159.869 67.4447 162.838 67.5537 165.916 67.5537L165.916 66.7365C162.865 66.7638 159.923 66.6548 158.098 66.4096Z" fill="black" fill-opacity="0.2"/>
<path d="M141.127 67.6351C134.862 65.347 126.445 60.6074 121.106 56.3853C118.165 54.0427 113.262 49.2214 110.619 46.0888C105.907 40.4776 100.868 31.7337 98.3617 24.8422C96.3188 19.3126 94.7661 12.3666 94.1669 6.23779C94.0307 4.68515 93.9762 2.45155 94.0034 0.0272572L93.1862 0.0272572C93.159 2.47879 93.2135 4.73965 93.3497 6.29229C93.949 12.5028 95.5561 19.5306 97.599 25.1146C100.132 32.0879 105.253 40.9134 110.02 46.6064C112.69 49.7934 117.647 54.642 120.616 57.0118C126.091 61.3428 134.426 66.028 140.855 68.3706C148.891 71.3396 157.389 72.8105 165.888 72.8105L165.888 71.9934C157.471 72.0206 149.081 70.5497 141.127 67.6351Z" fill="black" fill-opacity="0.2"/>
<path d="M139.003 55.3772C119.527 45.8979 106.943 27.8383 104.491 5.85623C104.355 4.54875 104.301 2.36959 104.355 0.0542575L103.538 0.0542575C103.511 2.42407 103.538 4.63044 103.674 5.96516C104.873 16.8064 108.713 27.1301 114.733 35.7649C120.753 44.3998 129.034 51.4547 138.649 56.1399C147.42 60.4165 156.6 62.5684 165.861 62.5684L165.861 61.7512C156.736 61.7239 147.665 59.5993 139.003 55.3772Z" fill="black" fill-opacity="0.2"/>
<path d="M148.073 53.5798C137.777 50.1748 128.706 43.8281 121.787 35.2205C113.806 25.2782 109.448 12.7209 109.448 0.0818446L109.448 0.054612L108.631 0.0546121C108.631 12.8571 113.071 25.6323 121.161 35.7108C128.161 44.4546 137.395 50.8831 147.828 54.3425C153.766 56.3037 159.84 57.2843 165.86 57.3115L165.86 56.4943C159.922 56.4671 153.93 55.5137 148.073 53.5798Z" fill="black" fill-opacity="0.2"/>
<path d="M163.981 46.1431C148.346 45.4076 134.263 36.9907 126.309 23.6162C122.087 16.5068 119.772 8.14433 119.772 0.0542737L118.955 0.0542737C118.982 8.30777 121.297 16.8064 125.601 24.0521C129.551 30.6984 135.162 36.3097 141.863 40.3139C148.536 44.3181 156.191 46.6062 163.954 46.9875C164.58 47.0148 165.234 47.042 165.861 47.042L165.861 46.2248C165.261 46.1703 164.608 46.1703 163.981 46.1431Z" fill="black" fill-opacity="0.2"/>
<path d="M132.819 39.1697C122.659 30.6439 116.122 18.2228 114.869 5.03897C114.705 3.37738 114.624 1.71577 114.651 0.0269407L113.834 0.0269408C113.834 1.71578 113.915 3.4046 114.079 5.09344C115.359 18.4679 122.006 31.1069 132.302 39.769C139.902 46.1703 149.136 50.2561 158.942 51.6181C161.257 51.945 163.545 52.0812 165.861 52.1084L165.861 51.264C154.012 51.2095 142.217 47.0691 132.819 39.1697Z" fill="black" fill-opacity="0.2"/>
<path d="M146.031 35.82C139.657 32.2244 133.855 26.4224 130.178 19.9667C127.672 15.5812 125.71 9.15273 125.138 3.56868C125.029 2.56083 124.975 1.4985 124.975 0.408931C124.975 0.299974 124.975 0.191004 124.975 0.0548075L124.158 0.0548076C124.158 1.30781 124.185 2.50633 124.321 3.65038C124.893 9.34338 126.909 15.9081 129.469 20.3753C133.228 26.9672 139.139 32.8781 145.649 36.5554C151.506 39.8786 158.942 41.7854 165.888 41.8398L165.888 41.0227C159.078 40.9409 151.751 39.0614 146.031 35.82Z" fill="black" fill-opacity="0.2"/>
<path d="M159.487 35.2479C152.677 33.9132 146.467 30.7535 141.564 26.1228C138.758 23.4806 137.015 21.3014 135.135 18.0872C132.629 13.8379 130.94 8.90758 130.396 4.19519C130.287 3.29629 130.259 2.15224 130.259 0.926476C130.259 0.626844 130.259 0.327232 130.259 0.0276001L129.442 0.0276001C129.415 1.63472 129.469 3.13287 129.578 4.27692C130.123 9.09827 131.839 14.1375 134.427 18.4958C136.361 21.7645 138.132 23.9982 141.019 26.6948C146.031 31.4345 152.378 34.6487 159.324 36.0379C160.985 36.3648 163.41 36.5282 165.888 36.501L165.888 35.6838C163.464 35.711 161.094 35.5748 159.487 35.2479Z" fill="black" fill-opacity="0.2"/>
<path d="M152.895 21.846C150.007 20.1844 145.594 15.7172 143.987 12.8299C141.754 8.88016 140.555 4.44016 140.555 0.0546341L139.738 0.0546342C139.765 4.57635 140.964 9.12532 143.279 13.2112C144.995 16.262 149.462 20.8109 152.513 22.5543C156.708 24.9785 161.284 26.2315 165.888 26.2588L165.888 25.4416C161.42 25.4144 156.981 24.2159 152.895 21.846Z" fill="black" fill-opacity="0.2"/>
<path d="M148.291 25.0326C146.03 23.4799 142.217 19.6119 140.746 17.4056C138.24 13.6738 136.415 9.0159 135.68 4.63038C135.489 3.54081 135.38 2.17884 135.38 0.571721C135.38 0.408285 135.38 0.244837 135.38 0.081401L134.563 0.0814011C134.535 1.93367 134.644 3.5408 134.862 4.79381C135.598 9.28828 137.477 14.0551 140.038 17.8959C141.59 20.2112 145.431 24.1064 147.801 25.7408C153.194 29.4726 159.541 31.4883 165.833 31.4883L165.833 30.6711C159.759 30.6166 153.576 28.6554 148.291 25.0326Z" fill="black" fill-opacity="0.2"/>
<path d="M155.891 17.5692C150.852 14.6546 147.256 9.64262 146.031 3.81342C145.84 2.86005 145.758 1.47083 145.758 0.0543902L144.941 0.0543902C144.941 1.52531 145.05 2.969 145.241 3.97685C146.521 10.024 150.253 15.2267 155.483 18.2775C158.724 20.157 162.293 21.1104 165.888 21.1104L165.888 20.2932C162.402 20.2932 158.997 19.367 155.891 17.5692Z" fill="black" fill-opacity="0.2"/>
<path d="M158.834 13.2388C154.938 11.1141 152.187 7.46403 151.234 3.24195C151.043 2.37029 150.934 1.36246 150.934 0.300127C150.934 0.218409 150.934 0.136685 150.934 0.054967L150.117 0.0549671C150.09 1.25349 150.199 2.39756 150.417 3.40541C151.425 7.87265 154.339 11.7134 158.425 13.947C160.768 15.2272 163.328 15.881 165.861 15.9082L165.861 15.091C163.464 15.0638 161.04 14.4373 158.834 13.2388Z" fill="black" fill-opacity="0.2"/>
<path d="M161.993 9.01592C161.04 8.5801 159.787 7.79016 159.215 7.24537C158.044 6.18304 156.6 3.67703 156.273 2.06991C156.137 1.38893 156.055 0.707951 156.082 0.0269692L155.265 0.0269692C155.265 0.762429 155.32 1.49788 155.483 2.23334C155.864 4.00389 157.39 6.67333 158.697 7.84462C159.351 8.44389 160.659 9.26106 161.694 9.75137C163.328 10.5141 163.9 10.623 165.916 10.623L165.916 9.80587C163.954 9.83311 163.519 9.72414 161.993 9.01592Z" fill="black" fill-opacity="0.2"/>
<path d="M165.207 4.71223C163.655 4.49432 162.347 3.45924 161.639 1.90661C161.34 1.2801 161.176 0.653594 161.176 0.0270907L160.359 0.0270908C160.359 0.762551 160.522 1.498 160.876 2.23346C161.694 4.03126 163.219 5.22978 165.071 5.50218C165.344 5.52941 165.589 5.55664 165.861 5.55664L165.861 4.73946C165.643 4.7667 165.425 4.73947 165.207 4.71223Z" fill="black" fill-opacity="0.2"/>
</svg>
