<svg width="183" height="50" viewBox="0 0 183 50" fill="none" xmlns="http://www.w3.org/2000/svg">
<path d="M1.40869 5.09469C1.40869 3.73305 1.42337 2.37141 1.42337 1.02441C1.59947 1.02441 1.7609 1.02441 1.937 1.02441C61.6651 1.02441 121.408 1.02441 181.136 1.02441C181.356 1.02441 181.576 1.02441 181.797 1.03906C181.841 1.0537 181.87 1.0537 181.914 1.02441C181.914 17.0859 181.914 33.1328 181.929 49.1943C181.929 49.6628 181.811 49.8678 181.327 49.7945C181.136 49.7653 180.931 49.7945 180.74 49.7945C121.261 49.7945 61.7825 49.7945 2.30388 49.7945C2.01038 49.7945 1.71687 49.8092 1.42337 49.8092C1.42337 35.2557 1.42337 20.7023 1.42337 6.13422C1.42337 5.76819 1.40869 5.43144 1.40869 5.09469ZM91.7494 47.4519C120.733 47.4519 149.716 47.4519 178.685 47.4519C179.698 47.4519 179.61 47.613 179.61 46.5149C179.61 32.43 179.61 18.3597 179.61 4.27478C179.61 3.16204 179.698 3.3231 178.685 3.3231C120.704 3.3231 62.7218 3.3231 4.72529 3.3231C3.7127 3.3231 3.7127 3.3231 3.7127 4.30406C3.7127 18.3304 3.7127 32.3568 3.7127 46.3978C3.7127 47.4666 3.7127 47.4666 4.78399 47.4666C33.7969 47.4519 62.7805 47.4519 91.7494 47.4519Z" fill="black"/>
<path d="M36.0863 30.6883C36.0863 32.7088 36.0716 34.7439 36.101 36.7644C36.1157 37.2915 35.9983 37.5111 35.4259 37.4672C34.472 37.4233 33.5182 37.4379 32.5643 37.4526C32.2267 37.4526 32.036 37.3794 31.9479 36.9987C31.8452 36.5302 31.6104 36.0909 31.493 35.6224C31.3609 35.066 31.1261 35.0807 30.7299 35.3735C29.5412 36.2666 28.2204 36.9401 26.7676 37.2915C24.8011 37.76 22.8199 38.0822 20.7801 37.8186C19.1658 37.6136 17.5809 37.3794 16.0693 36.7205C13.5892 35.6371 11.9162 33.7923 10.9623 31.3325C10.1405 29.2242 9.83235 26.9694 9.93508 24.7147C10.0378 22.2549 10.4194 19.8245 11.7548 17.6576C13.0609 15.5492 14.9393 14.1583 17.2287 13.3237C19.6501 12.4453 22.2036 12.1231 24.7571 12.3281C27.3839 12.5331 29.9374 13.0748 32.1974 14.5682C34.5014 16.0909 35.8075 18.1846 36.0716 20.9372C36.1157 21.3911 36.0276 21.5961 35.4993 21.5814C33.4008 21.5521 31.2875 21.5668 29.189 21.5668C28.8955 21.5668 28.6607 21.5961 28.5579 21.1715C28.147 19.4731 26.8556 18.5946 25.2854 18.3164C23.0254 17.9211 20.8094 18.0529 19.2098 20.0294C18.5348 20.864 18.1239 21.8596 18.1092 22.9577C18.0945 24.3193 18.0652 25.6956 18.1092 27.0573C18.1972 29.8098 19.9876 31.7132 22.6732 32.006C24.1407 32.1671 25.6082 32.0939 26.9143 31.2593C27.6481 30.7908 28.2204 30.2198 28.4846 29.3413C28.646 28.7996 28.4846 28.6824 28.0003 28.6824C26.5768 28.6824 25.168 28.6532 23.7445 28.6971C23.1575 28.7117 22.9227 28.58 22.9373 27.9357C22.9814 26.7352 22.9667 25.5492 22.9373 24.3486C22.9227 23.8947 23.0988 23.763 23.5243 23.763C27.516 23.7776 31.493 23.7776 35.4846 23.763C35.9542 23.763 36.057 23.9387 36.057 24.3633C36.0716 26.4863 36.0863 28.5946 36.0863 30.6883Z" fill="black"/>
<path d="M69.3699 25.1244C69.3699 21.2445 69.3845 17.3645 69.3552 13.4846C69.3552 12.9282 69.5166 12.7964 70.0596 12.7964C75.2399 12.8257 80.435 12.7379 85.6153 12.855C88.4183 12.9136 91.3533 14.6412 92.4246 17.7891C93.716 21.5812 91.9403 25.5051 88.5504 26.8814C87.846 27.1595 88.1982 27.4816 88.3743 27.8184C89.9739 30.8491 91.5735 33.8945 93.2171 36.9106C93.5106 37.4377 93.3051 37.467 92.8502 37.467C90.3261 37.467 87.8166 37.4524 85.2925 37.467C84.8375 37.467 84.6027 37.3206 84.3973 36.896C83.1646 34.3045 81.9025 31.7423 80.6844 29.1508C80.435 28.6237 80.1268 28.3748 79.5104 28.4187C78.9234 28.4773 78.3364 28.4333 77.7494 28.4333C77.3532 28.4333 77.2064 28.5505 77.2211 28.9897C77.2504 31.5812 77.2358 34.1581 77.2651 36.7496C77.2651 37.2913 77.1184 37.467 76.5607 37.4524C74.3888 37.4231 72.2022 37.4231 70.0302 37.4524C69.4579 37.467 69.3405 37.262 69.3552 36.7349C69.3845 32.8843 69.3699 29.0043 69.3699 25.1244ZM80.2295 23.0746C81.0073 23.0746 81.7998 23.0893 82.5776 23.0746C83.7809 23.06 84.8375 22.0351 84.8669 20.8784C84.9109 19.4143 84.0451 18.3016 82.7243 18.2576C81.066 18.1991 79.4077 18.243 77.7494 18.2284C77.3532 18.2284 77.1771 18.3894 77.1771 18.7994C77.1917 20.0439 77.1917 21.2884 77.1771 22.5329C77.1771 22.9428 77.3385 23.1039 77.7494 23.0893C78.5712 23.06 79.393 23.0746 80.2295 23.0746Z" fill="black"/>
<path d="M151.83 25.1248C151.83 21.2449 151.844 17.365 151.815 13.485C151.815 12.9286 151.962 12.7969 152.505 12.7969C159.182 12.8115 165.859 12.8115 172.536 12.7969C173.035 12.7969 173.211 12.914 173.197 13.4411C173.167 14.9052 173.153 16.3693 173.197 17.8335C173.211 18.4045 173.065 18.5802 172.463 18.5802C168.501 18.5509 164.538 18.5655 160.576 18.5655C159.622 18.5655 159.593 18.5948 159.593 19.5612C159.593 20.1907 159.622 20.8349 159.578 21.4645C159.549 22.0355 159.813 22.1819 160.327 22.1673C163.673 22.0355 167.018 22.1527 170.379 22.0941C171.025 22.0795 171.23 22.3137 171.201 22.9579C171.157 24.2756 171.157 25.5934 171.201 26.9111C171.23 27.5407 171.069 27.7456 170.394 27.731C167.092 27.7017 163.79 27.731 160.488 27.7017C159.798 27.7017 159.505 27.8774 159.563 28.6095C159.622 29.3415 159.622 30.0736 159.563 30.8057C159.505 31.5084 159.813 31.6841 160.459 31.6695C164.494 31.6549 168.53 31.6841 172.566 31.6402C173.299 31.6402 173.461 31.8598 173.432 32.548C173.373 33.9389 173.388 35.3298 173.432 36.7207C173.446 37.2625 173.344 37.4821 172.727 37.4821C165.977 37.4528 159.226 37.4528 152.475 37.4821C151.903 37.4821 151.8 37.2918 151.8 36.7647C151.844 32.8847 151.83 29.0048 151.83 25.1248Z" fill="black"/>
<path d="M118.267 37.4528C117.24 37.4528 116.198 37.3796 115.186 37.4821C114.349 37.5699 114.041 37.1746 113.865 36.4865C113.689 35.813 113.498 35.1395 113.322 34.466C113.219 34.0707 112.94 33.9096 112.559 33.9096C109.991 33.9096 107.423 33.9096 104.854 33.9096C104.502 33.9096 104.341 34.0853 104.209 34.3781C103.856 35.1834 103.651 36.0326 103.431 36.8671C103.328 37.2625 103.137 37.4382 102.726 37.4382C100.422 37.4382 98.1331 37.4235 95.8291 37.4382C95.3301 37.4382 95.2567 37.2917 95.4328 36.8232C97.0324 32.4894 98.6174 28.1409 100.202 23.8071C101.494 20.2786 102.785 16.7647 104.062 13.2361C104.179 12.8847 104.37 12.7822 104.708 12.7822C107.467 12.7822 110.24 12.7969 112.999 12.7822C113.439 12.7822 113.586 13.0458 113.703 13.3825C115.831 19.239 117.974 25.1102 120.117 30.9667C120.85 32.9579 121.54 34.9638 122.318 36.9404C122.509 37.4528 122.333 37.4528 121.951 37.4528C120.718 37.4528 119.486 37.4528 118.267 37.4528ZM108.655 28.5216C108.655 28.507 108.655 28.507 108.655 28.5216C109.316 28.5216 109.976 28.4777 110.636 28.5363C111.311 28.5802 111.458 28.3313 111.267 27.731C110.519 25.2712 109.8 22.8115 109.051 20.3518C108.993 20.1614 109.051 19.8393 108.773 19.8247C108.435 19.7954 108.45 20.1614 108.391 20.3518C107.628 22.8847 106.894 25.4177 106.116 27.9506C105.984 28.3898 106.102 28.5363 106.542 28.5216C107.246 28.507 107.951 28.5216 108.655 28.5216Z" fill="black"/>
<path d="M66.0383 12.8994C65.1577 14.2756 64.2919 15.6226 63.4407 16.955C61.1514 20.5275 58.8768 24.0999 56.5874 27.6578C56.3966 27.9506 56.4113 28.2581 56.4113 28.5655C56.4113 31.3035 56.3966 34.0267 56.426 36.7647C56.426 37.2917 56.3086 37.4821 55.7363 37.4674C53.6083 37.4382 51.4804 37.4382 49.3525 37.4674C48.7655 37.4821 48.6334 37.3064 48.6334 36.7207C48.6628 34.0121 48.6481 31.3035 48.6481 28.5948C48.6481 28.1849 48.5894 27.8188 48.3693 27.4821C45.4783 23.0458 42.5726 18.5948 39.6816 14.1439C39.4174 13.7339 39.1679 13.324 38.9185 12.9286C39.1679 12.7237 39.4321 12.7969 39.6669 12.7969C42.191 12.7969 44.7005 12.8115 47.2246 12.7822C47.6796 12.7822 47.929 12.9286 48.1345 13.3093C49.4993 15.6812 50.8641 18.0531 52.2436 20.425C52.6251 21.0985 52.7572 21.0985 53.1387 20.4396C54.5182 18.0531 55.8977 15.6666 57.2772 13.28C57.4533 12.9872 57.6147 12.7822 57.9962 12.7822C60.5351 12.7969 63.0885 12.7822 65.6274 12.7969C65.7448 12.8115 65.8622 12.8554 66.0383 12.8994Z" fill="black"/>
<path d="M135.937 12.8115C139.708 12.8115 143.465 12.8262 147.237 12.7969C147.838 12.7969 148.029 12.9433 148.014 13.5582C147.97 15.1248 147.97 16.6768 148.014 18.2434C148.029 18.8877 147.794 19.0048 147.222 19.0048C145.021 18.9755 142.819 19.0194 140.618 18.9755C139.958 18.9609 139.796 19.1951 139.796 19.8247C139.811 25.4323 139.796 31.0399 139.826 36.6475C139.826 37.365 139.591 37.4821 138.96 37.4821C136.905 37.4528 134.851 37.4382 132.796 37.4821C132.165 37.4967 132.033 37.2917 132.033 36.7061C132.048 31.1278 132.048 25.5348 132.048 19.9565C132.048 19.0194 132.033 19.0048 131.108 19.0048C128.907 19.0048 126.706 18.9901 124.505 19.0194C124.006 19.0194 123.83 18.9023 123.844 18.3752C123.874 16.7354 123.874 15.1102 123.844 13.4704C123.83 12.9579 123.976 12.8115 124.49 12.8115C128.306 12.8115 132.121 12.8115 135.937 12.8115Z" fill="black"/>
</svg>
