<svg width="111" height="103" viewBox="0 0 111 103" fill="none" xmlns="http://www.w3.org/2000/svg">
<g opacity="0.2">
<path d="M-2.28882e-05 -5.34058e-05H55.4802C55.4802 28.2947 80.3846 51.3077 110.991 51.3077V102.587C103.477 102.587 95.9622 101.886 88.6512 100.502C81.5127 99.1512 74.4914 97.1342 67.7783 94.5133C61.1946 91.9379 54.8514 88.7586 48.915 85.0494C43.0465 81.3858 37.5231 77.1752 32.5052 72.5373C27.4873 67.8994 22.938 62.7999 18.9681 57.37C14.9612 51.8831 11.5152 46.0202 8.72887 39.9351C5.89321 33.7303 3.71098 27.2406 2.25001 20.6427C0.758209 13.8909 -2.28882e-05 6.94543 -2.28882e-05 -5.34058e-05Z" fill="#233E2B"/>
</g>
</svg>
